PathFileType	4	(X/Y/Z)	C:/Users/beibeiliu/ov580/test_trc/capture2\sequence.30_training_dense_right.trc
DataRate	CameraRate	NumFrames	NumMarkers	Units	OrigDataRate	OrigDataStartFrame	OrigNumFrames
120	120	8	19	mm	120	301	400
Frame#	Time	ThumbCMC			ThumbMCP			ThumbIP			ThumbTip			IndexMCP			IndexPIP			IndexTip			MiddleMCP			MiddlePIP			MiddleTip			RingMCP			RingPIP			RingTip			PinkyMCP			PinkyPIP			PinkyTip			BackHand1			BackHand2			BackHand3	
		X0	Y0	Z0	X1	Y1	Z1	X2	Y2	Z2	X3	Y3	Z3	X4	Y4	Z4	X5	Y5	Z5	X6	Y6	Z6	X7	Y7	Z7	X8	Y8	Z8	X9	Y9	Z9	X10	Y10	Z10	X11	Y11	Z11	X12	Y12	Z12	X13	Y13	Z13	X14	Y14	Z14	X15	Y15	Z15	X16	Y16	Z16	X17	Y17	Z17	X18	Y18	Z18	
300	2.5	143.202	62.3619	38.0986	142.698	77.4648	9.05553	150.575	83.0627	-18.4007	153.406	80.9788	-37.9974	170.685	43.466	-33.3889	162.671	45.0716	-60.9599	136.932	48.7605	-80.5323	161.509	23.0075	-40.1329	146.089	27.4099	-64.3092	109.926	34.3225	-70.2394	139.923	11.02	-34.7271	112.64	22.9263	-45.1443	94.7783	40.8035	-25.7063	123.872	0.429877	-24.676	100.202	20.4849	-19.0958	100.546	36.5924	4.1056	161.072	5.16504	16.9327	155.065	7.20263	47.9116	167.063	37.3068	33.3524	
301	2.50833	144.598	67.6334	38.2191	143.699	74.809	8.16082	150.714	84.4946	-16.4073	157.175	81.6688	-40.5544	170.774	43.9855	-33.7612	161.013	45.2241	-62.2209	133.811	46.5599	-79.4652	160.261	20.8222	-42.4954	142.321	26.5651	-66.3043	107.469	36.0991	-69.5591	138.81	12.743	-36.8471	114.553	23.1366	-46.224	94.494	42.8988	-25.2051	126.491	3.12819	-24.8837	103.232	16.9729	-21.9727	100.796	38.1905	7.51683	159.011	4.1813	19.1458	154.722	6.41062	51.268	166.148	33.4439	29.7377	
302	2.51667	144.372	63.6965	36.0228	144.047	74.183	8.86242	151.938	83.0978	-16.0922	155.836	83.0818	-36.8514	170.111	45.8238	-32.9101	158.339	43.6361	-63.1534	130.94	48.073	-78.9228	160.642	23.8438	-39.0975	140.924	25.9629	-66.429	107.807	36.5221	-71.145	140.644	8.97643	-38.7032	113.874	19.8008	-48.4685	92.1644	37.698	-30.9137	127.284	1.0841	-25.619	101.99	17.3724	-22.8963	99.7015	35.9033	2.3339	161.848	6.77229	16.442	154.867	8.85733	51.0989	167.449	35.2297	29.7198	
303	2.525	145.547	66.1532	36.299	145.814	75.5048	7.17539	153.044	86.2063	-17.6584	156.658	89.5276	-36.5309	169.286	43.4814	-33.3682	159.709	47.0297	-64.3984	134.957	47.7283	-78.983	160.545	21.22	-43.2754	142.201	29.5177	-69.3085	111.262	36.9112	-73.2211	145.407	8.4633	-35.4007	117.473	15.6528	-53.7771	92.9932	35.9782	-42.1909	124.988	-1.36288	-27.8096	103.563	15.1764	-25.2347	99.7709	40.0586	-2.09818	161.431	7.20946	14.0466	155.42	8.74776	47.0155	167.281	38.2547	30.2386	
304	2.53333	145.447	63.4921	35.337	145.892	74.7164	8.22505	152.363	81.6374	-16.2995	155.916	85.4092	-37.0686	170.139	45.5115	-38.2718	160.631	45.3455	-63.0247	130.712	45.4329	-79.1285	162.163	22.6431	-43.2942	143.693	24.5103	-68.0785	109.479	37.7069	-75.7856	145.586	9.21818	-39.9951	119.891	16.0263	-57.9643	95.6669	30.636	-52.1917	125.329	-2.92647	-27.381	104.132	13.4572	-26.6207	95.7458	32.5805	-2.13813	161.489	4.96852	14.4161	156.712	6.51032	45.0692	169.659	37.7101	31.1647	
305	2.54167	146.192	63.3374	36.7151	144.553	75.2983	11.6326	153.568	80.1075	-17.1945	157.745	82.2838	-39.7737	169.786	43.8436	-34.7294	161.558	45.9411	-62.6475	134.677	47.102	-79.8872	163.157	21.7609	-39.8018	144.382	26.2028	-68.8325	114.206	36.1699	-75.8768	145.465	7.65349	-40.3671	125.717	14.2249	-57.145	97.6412	32.0278	-55.3857	127.162	-4.94407	-24.2515	101.606	16.0322	-24.8798	100.441	34.5772	-4.7999	160.451	3.25555	18.018	156.132	2.64337	45.8521	168.283	36.7862	31.3675	
306	2.55	148.479	64.3314	36.4191	146.426	76.3528	10.0073	154.362	83.7851	-16.5892	156.813	83.2799	-36.8229	172.679	45.5921	-37.4943	161.168	43.4457	-62.2687	135.016	45.4609	-78.8889	163.573	20.4478	-41.0854	145.667	27.2119	-69.2173	115.023	35.5697	-74.8927	145.931	8.42561	-37.3181	123.381	17.4148	-55.3796	94.1555	33.7446	-49.2924	128.94	-0.190596	-26.9175	105.038	14.0529	-27.0247	101.658	36.5744	1.22792	161.008	4.52491	18.883	153.577	2.81761	48.9049	167.981	31.8671	29.2421	
307	2.55833	148.202	62.3189	36.8697	146.38	72.0547	10.2847	153.728	80.7742	-12.9964	160.752	84.0839	-40.4032	171.212	39.4236	-36.2142	162.015	46.442	-64.7168	138.761	49.3987	-78.3715	164.383	21.3956	-41.9606	145.488	26.5353	-68.2151	116.332	37.7219	-74.7142	143.178	6.59142	-38.0641	120.83	21.4786	-51.7429	95.1287	39.7064	-38.233	125.593	-2.76356	-25.1448	104.317	18.8269	-22.7327	107.169	37.4663	2.23327	159.221	1.09519	16.2371	155.754	6.0893	45.0094	170.034	32.3537	30.7162	
